<svg width="40" height="38" viewBox="0 0 40 38" fill="none" xmlns="http://www.w3.org/2000/svg">
<path d="M30 18H2C0.895437 18 0 17.1046 0 16V12C0 10.8954 0.895437 10 2 10H30C31.1046 10 32 10.8954 32 12V16C32 17.1046 31.1046 18 30 18ZM27 12.5C26.1716 12.5 25.5 13.1716 25.5 14C25.5 14.8284 26.1716 15.5 27 15.5C27.8284 15.5 28.5 14.8284 28.5 14C28.5 13.1716 27.8284 12.5 27 12.5ZM23 12.5C22.1716 12.5 21.5 13.1716 21.5 14C21.5 14.8284 22.1716 15.5 23 15.5C23.8284 15.5 24.5 14.8284 24.5 14C24.5 13.1716 23.8284 12.5 23 12.5ZM30 28H2C0.895437 28 0 27.1046 0 26V22C0 20.8954 0.895437 20 2 20H30C31.1046 20 32 20.8954 32 22V26C32 27.1046 31.1046 28 30 28ZM27 22.5C26.1716 22.5 25.5 23.1716 25.5 24C25.5 24.8284 26.1716 25.5 27 25.5C27.8284 25.5 28.5 24.8284 28.5 24C28.5 23.1716 27.8284 22.5 27 22.5ZM23 22.5C22.1716 22.5 21.5 23.1716 21.5 24C21.5 24.8284 22.1716 25.5 23 25.5C23.8284 25.5 24.5 24.8284 24.5 24C24.5 23.1716 23.8284 22.5 23 22.5ZM30 38H2C0.895437 38 0 37.1046 0 36V32C0 30.8954 0.895437 30 2 30H30C31.1046 30 32 30.8954 32 32V36C32 37.1046 31.1046 38 30 38ZM27 32.5C26.1716 32.5 25.5 33.1716 25.5 34C25.5 34.8284 26.1716 35.5 27 35.5C27.8284 35.5 28.5 34.8284 28.5 34C28.5 33.1716 27.8284 32.5 27 32.5ZM23 32.5C22.1716 32.5 21.5 33.1716 21.5 34C21.5 34.8284 22.1716 35.5 23 35.5C23.8284 35.5 24.5 34.8284 24.5 34C24.5 33.1716 23.8284 32.5 23 32.5Z" fill="white" fill-opacity="0.9"/>
<path d="M21.8202 18.1823C21.8243 18.1776 21.829 18.1723 21.8343 18.1662C21.8297 18.1716 21.8251 18.177 21.8203 18.1824L21.8202 18.1823ZM20.3407 16.837L20.3331 16.8451L20.3258 16.8533C19.988 17.2331 19.9177 17.7605 20.0957 18.2023C20.2799 18.6595 20.7216 19 21.2656 19C23.4311 19 25.1118 18.0539 26.1171 17.2989C27.1674 17.6559 28.3064 17.8571 29.5 17.8571C34.6164 17.8571 39 14.2068 39 9.42857C39 4.65038 34.6164 1 29.5 1C24.3836 1 20 4.65038 20 9.42857C20 11.2778 20.6711 12.9713 21.7826 14.3422C21.5845 14.921 21.2836 15.4782 20.9905 15.9374C20.6803 16.4234 20.4095 16.7524 20.35 16.8248C20.3383 16.8391 20.3347 16.8434 20.3407 16.837Z" fill="#FF4AD6" stroke="#01003D" stroke-width="2"/>
</svg>
